<?xml version="1.0" encoding="UTF-8" standalone="no"?>
<!DOCTYPE svg PUBLIC "-//W3C//DTD SVG 1.1//EN"
 "http://www.w3.org/Graphics/SVG/1.1/DTD/svg11.dtd">
<!-- Generated by graphviz version 13.1.2 (20250808.2320)
 -->
<!-- Title: app.hw_mux_adg731.Adg731MuxSpi Pages: 1 -->
<svg width="144pt" height="152pt"
 viewBox="0.00 0.00 144.00 152.00" xmlns="http://www.w3.org/2000/svg" xmlns:xlink="http://www.w3.org/1999/xlink">
<g id="graph0" class="graph" transform="scale(1 1) rotate(0) translate(4 148)">
<title>app.hw_mux_adg731.Adg731MuxSpi</title>
<!-- Node1 -->
<g id="Node000001" class="node">
<title>Node1</title>
<g id="a_Node000001"><a xlink:title="Pilote SPI pour multiplexeurs ADG731.">
<polygon fill="#999999" stroke="none" points="136.25,-144 0,-144 0,0 136.25,0 136.25,-144"/>
<text xml:space="preserve" text-anchor="start" x="4" y="-130.5" font-family="Helvetica,sans-Serif" font-size="10.00">app.hw_mux_adg731.Adg731</text>
<text xml:space="preserve" text-anchor="start" x="51.62" y="-118.5" font-family="Helvetica,sans-Serif" font-size="10.00">MuxSpi</text>
<text xml:space="preserve" text-anchor="start" x="10.88" y="-102.5" font-family="Helvetica,sans-Serif" font-size="10.00">+</text>
<text xml:space="preserve" text-anchor="start" x="27.75" y="-102.5" font-family="Helvetica,sans-Serif" font-size="10.00">speed</text>
<text xml:space="preserve" text-anchor="start" x="10.88" y="-86.5" font-family="Helvetica,sans-Serif" font-size="10.00">+</text>
<text xml:space="preserve" text-anchor="start" x="27.75" y="-86.5" font-family="Helvetica,sans-Serif" font-size="10.00">handles</text>
<text xml:space="preserve" text-anchor="start" x="10.88" y="-70.5" font-family="Helvetica,sans-Serif" font-size="10.00">+</text>
<text xml:space="preserve" text-anchor="start" x="27.75" y="-70.5" font-family="Helvetica,sans-Serif" font-size="10.00">DEV</text>
<text xml:space="preserve" text-anchor="start" x="10.88" y="-54.5" font-family="Helvetica,sans-Serif" font-size="10.00">+</text>
<text xml:space="preserve" text-anchor="start" x="27.75" y="-54.5" font-family="Helvetica,sans-Serif" font-size="10.00">__init__()</text>
<text xml:space="preserve" text-anchor="start" x="10.88" y="-38.5" font-family="Helvetica,sans-Serif" font-size="10.00">+</text>
<text xml:space="preserve" text-anchor="start" x="27.75" y="-38.5" font-family="Helvetica,sans-Serif" font-size="10.00">close()</text>
<text xml:space="preserve" text-anchor="start" x="10.88" y="-22.5" font-family="Helvetica,sans-Serif" font-size="10.00">+</text>
<text xml:space="preserve" text-anchor="start" x="27.75" y="-22.5" font-family="Helvetica,sans-Serif" font-size="10.00">set_channel()</text>
<text xml:space="preserve" text-anchor="start" x="10.88" y="-6.5" font-family="Helvetica,sans-Serif" font-size="10.00">+</text>
<text xml:space="preserve" text-anchor="start" x="27.75" y="-6.5" font-family="Helvetica,sans-Serif" font-size="10.00">set_output_channel()</text>
<polygon fill="#666666" stroke="#666666" points="0,-114 0,-114 136.25,-114 136.25,-114 0,-114"/>
<polygon fill="#666666" stroke="#666666" points="0,-66 0,-66 25.75,-66 25.75,-66 0,-66"/>
<polygon fill="#666666" stroke="#666666" points="25.75,-66 25.75,-66 136.25,-66 136.25,-66 25.75,-66"/>
<polygon fill="none" stroke="#666666" points="0,0 0,-144 136.25,-144 136.25,0 0,0"/>
</a>
</g>
</g>
</g>
</svg>
