<?xml version="1.0" encoding="UTF-8" standalone="no"?>
<!DOCTYPE svg PUBLIC "-//W3C//DTD SVG 1.1//EN"
 "http://www.w3.org/Graphics/SVG/1.1/DTD/svg11.dtd">
<!-- Generated by graphviz version 13.1.2 (20250808.2320)
 -->
<!-- Title: app.adc_ads124s08.Ads124s08.read_code24 Pages: 1 -->
<svg width="833pt" height="128pt"
 viewBox="0.00 0.00 833.00 128.00" xmlns="http://www.w3.org/2000/svg" xmlns:xlink="http://www.w3.org/1999/xlink">
<g id="graph0" class="graph" transform="scale(1 1) rotate(0) translate(4 124)">
<title>app.adc_ads124s08.Ads124s08.read_code24</title>
<!-- Node1 -->
<g id="Node000001" class="node">
<title>Node1</title>
<g id="a_Node000001"><a xlink:title="Lit un code de données 24 bits depuis l&#39;ADC.">
<polygon fill="#999999" stroke="#666666" points="176.5,-76 0,-76 0,-44 176.5,-44 176.5,-76"/>
<text xml:space="preserve" text-anchor="start" x="8" y="-62.5" font-family="Helvetica,sans-Serif" font-size="10.00">app.adc_ads124s08.Ads124s08.read</text>
<text xml:space="preserve" text-anchor="middle" x="88.25" y="-50.5" font-family="Helvetica,sans-Serif" font-size="10.00">_code24</text>
</a>
</g>
</g>
<!-- Node2 -->
<g id="Node000002" class="node">
<title>Node2</title>
<g id="a_Node000002"><a xlink:href="namespaceapp_1_1adc__ads124s08.html#a2d49f7c13e0b47db65080ab59febed76" target="_top" xlink:title="Étend le signe d&#39;un code ADC 24 bits vers 32 bits.">
<polygon fill="white" stroke="#666666" points="363.12,-120 239.12,-120 239.12,-88 363.12,-88 363.12,-120"/>
<text xml:space="preserve" text-anchor="start" x="247.12" y="-106.5" font-family="Helvetica,sans-Serif" font-size="10.00">app.adc_ads124s08.sign</text>
<text xml:space="preserve" text-anchor="middle" x="301.12" y="-94.5" font-family="Helvetica,sans-Serif" font-size="10.00">_extend_24</text>
</a>
</g>
</g>
<!-- Node1&#45;&gt;Node2 -->
<g id="edge1_Node000001_Node000002" class="edge">
<title>Node1&#45;&gt;Node2</title>
<g id="a_edge1_Node000001_Node000002"><a xlink:title=" ">
<path fill="none" stroke="#63b8ff" d="M168.07,-76.45C187.63,-80.53 208.5,-84.88 227.73,-88.89"/>
<polygon fill="#63b8ff" stroke="#63b8ff" points="226.86,-92.29 237.36,-90.9 228.29,-85.44 226.86,-92.29"/>
</a>
</g>
</g>
<!-- Node3 -->
<g id="Node000003" class="node">
<title>Node3</title>
<g id="a_Node000003"><a xlink:href="classapp_1_1adc__ads124s08_1_1_ads124s08.html#a5d7414311a828e4231a22b6e414cbfba" target="_top" xlink:title="Démarre une conversion ADC.">
<polygon fill="white" stroke="#666666" points="389.75,-70 212.5,-70 212.5,-50 389.75,-50 389.75,-70"/>
<text xml:space="preserve" text-anchor="middle" x="301.12" y="-56.5" font-family="Helvetica,sans-Serif" font-size="10.00">app.adc_ads124s08.Ads124s08.start</text>
</a>
</g>
</g>
<!-- Node1&#45;&gt;Node3 -->
<g id="edge2_Node000001_Node000003" class="edge">
<title>Node1&#45;&gt;Node3</title>
<g id="a_edge2_Node000001_Node000003"><a xlink:title=" ">
<path fill="none" stroke="#63b8ff" d="M176.85,-60C184.77,-60 192.83,-60 200.84,-60"/>
<polygon fill="#63b8ff" stroke="#63b8ff" points="200.61,-63.5 210.61,-60 200.61,-56.5 200.61,-63.5"/>
</a>
</g>
</g>
<!-- Node4 -->
<g id="Node000004" class="node">
<title>Node4</title>
<g id="a_Node000004"><a xlink:href="classapp_1_1adc__ads124s08_1_1_ads124s08.html#a6cbdea3f16ae1dff329ec8e45ef859d1" target="_top" xlink:title="Attend un front descendant sur DRDY (HIGH &#45;&gt; LOW) avec timeout.">
<polygon fill="white" stroke="#666666" points="389,-32 213.25,-32 213.25,0 389,0 389,-32"/>
<text xml:space="preserve" text-anchor="start" x="221.25" y="-18.5" font-family="Helvetica,sans-Serif" font-size="10.00">app.adc_ads124s08.Ads124s08.wait</text>
<text xml:space="preserve" text-anchor="middle" x="301.12" y="-6.5" font-family="Helvetica,sans-Serif" font-size="10.00">_drdy_falling_edge</text>
</a>
</g>
</g>
<!-- Node1&#45;&gt;Node4 -->
<g id="edge3_Node000001_Node000004" class="edge">
<title>Node1&#45;&gt;Node4</title>
<g id="a_edge3_Node000001_Node000004"><a xlink:title=" ">
<path fill="none" stroke="#63b8ff" d="M168.07,-43.55C181.73,-40.7 196.03,-37.72 209.97,-34.81"/>
<polygon fill="#63b8ff" stroke="#63b8ff" points="210.49,-38.28 219.57,-32.81 209.06,-31.43 210.49,-38.28"/>
</a>
</g>
</g>
<!-- Node5 -->
<g id="Node000005" class="node">
<title>Node5</title>
<g id="a_Node000005"><a xlink:href="classapp_1_1adc__ads124s08_1_1_ads124s08.html#a6c3a8c9cc298fbe29123898f8e404b82" target="_top" xlink:title="Écrit dans un ou plusieurs registres de l&#39;ADC via SPI.">
<polygon fill="white" stroke="#666666" points="609.75,-26 425.75,-26 425.75,-6 609.75,-6 609.75,-26"/>
<text xml:space="preserve" text-anchor="middle" x="517.75" y="-12.5" font-family="Helvetica,sans-Serif" font-size="10.00">app.adc_ads124s08.Ads124s08._wreg</text>
</a>
</g>
</g>
<!-- Node4&#45;&gt;Node5 -->
<g id="edge4_Node000004_Node000005" class="edge">
<title>Node4&#45;&gt;Node5</title>
<g id="a_edge4_Node000004_Node000005"><a xlink:title=" ">
<path fill="none" stroke="#63b8ff" d="M389.42,-16C397.47,-16 405.67,-16 413.84,-16"/>
<polygon fill="#63b8ff" stroke="#63b8ff" points="413.83,-19.5 423.83,-16 413.83,-12.5 413.83,-19.5"/>
</a>
</g>
</g>
<!-- Node6 -->
<g id="Node000006" class="node">
<title>Node6</title>
<g id="a_Node000006"><a xlink:href="classapp_1_1adc__ads124s08_1_1_ads124s08.html#a2f6a4281f1eaac0a7120e6b507b1c9e6" target="_top" xlink:title="Lit un ou plusieurs registres de l&#39;ADC via SPI.">
<polygon fill="white" stroke="#666666" points="825.25,-26 645.75,-26 645.75,-6 825.25,-6 825.25,-26"/>
<text xml:space="preserve" text-anchor="middle" x="735.5" y="-12.5" font-family="Helvetica,sans-Serif" font-size="10.00">app.adc_ads124s08.Ads124s08._rreg</text>
</a>
</g>
</g>
<!-- Node5&#45;&gt;Node6 -->
<g id="edge5_Node000005_Node000006" class="edge">
<title>Node5&#45;&gt;Node6</title>
<g id="a_edge5_Node000005_Node000006"><a xlink:title=" ">
<path fill="none" stroke="#63b8ff" d="M610.25,-16C618.04,-16 625.95,-16 633.81,-16"/>
<polygon fill="#63b8ff" stroke="#63b8ff" points="633.76,-19.5 643.76,-16 633.76,-12.5 633.76,-19.5"/>
</a>
</g>
</g>
</g>
</svg>
