<?xml version="1.0" encoding="UTF-8" standalone="no"?>
<!DOCTYPE svg PUBLIC "-//W3C//DTD SVG 1.1//EN"
 "http://www.w3.org/Graphics/SVG/1.1/DTD/svg11.dtd">
<!-- Generated by graphviz version 13.1.2 (20250808.2320)
 -->
<!-- Title: app.adc_ads124s08.Ads124s08._wreg Pages: 1 -->
<svg width="869pt" height="90pt"
 viewBox="0.00 0.00 869.00 90.00" xmlns="http://www.w3.org/2000/svg" xmlns:xlink="http://www.w3.org/1999/xlink">
<g id="graph0" class="graph" transform="scale(1 1) rotate(0) translate(4 86)">
<title>app.adc_ads124s08.Ads124s08._wreg</title>
<!-- Node1 -->
<g id="Node000001" class="node">
<title>Node1</title>
<g id="a_Node000001"><a xlink:title="Écrit dans un ou plusieurs registres de l&#39;ADC via SPI.">
<polygon fill="#999999" stroke="#666666" points="861.25,-51 677.25,-51 677.25,-31 861.25,-31 861.25,-51"/>
<text xml:space="preserve" text-anchor="middle" x="769.25" y="-37.5" font-family="Helvetica,sans-Serif" font-size="10.00">app.adc_ads124s08.Ads124s08._wreg</text>
</a>
</g>
</g>
<!-- Node2 -->
<g id="Node000002" class="node">
<title>Node2</title>
<g id="a_Node000002"><a xlink:href="classapp_1_1adc__ads124s08_1_1_ads124s08.html#abe455695d580ba27f0e5c559414fefbf" target="_top" xlink:title="Configure un canal ADC avec ses paramètres de mesure.">
<polygon fill="white" stroke="#666666" points="641.25,-82 443.75,-82 443.75,-50 641.25,-50 641.25,-82"/>
<text xml:space="preserve" text-anchor="start" x="451.75" y="-68.5" font-family="Helvetica,sans-Serif" font-size="10.00">app.adc_ads124s08.Ads124s08.configure</text>
<text xml:space="preserve" text-anchor="middle" x="542.5" y="-56.5" font-family="Helvetica,sans-Serif" font-size="10.00">_channel</text>
</a>
</g>
</g>
<!-- Node1&#45;&gt;Node2 -->
<g id="edge1_Node000001_Node000002" class="edge">
<title>Node1&#45;&gt;Node2</title>
<g id="a_edge1_Node000001_Node000002"><a xlink:title=" ">
<path fill="none" stroke="#63b8ff" d="M665.55,-52.42C657.52,-53.32 649.42,-54.22 641.42,-55.11"/>
<polygon fill="#63b8ff" stroke="#63b8ff" points="665.78,-55.92 675.33,-51.34 665.01,-48.96 665.78,-55.92"/>
</a>
</g>
</g>
<!-- Node3 -->
<g id="Node000003" class="node">
<title>Node3</title>
<g id="a_Node000003"><a xlink:href="classapp_1_1adc__ads124s08_1_1_ads124s08.html#a6cbdea3f16ae1dff329ec8e45ef859d1" target="_top" xlink:title="Attend un front descendant sur DRDY (HIGH &#45;&gt; LOW) avec timeout.">
<polygon fill="white" stroke="#666666" points="630.38,-32 454.62,-32 454.62,0 630.38,0 630.38,-32"/>
<text xml:space="preserve" text-anchor="start" x="462.62" y="-18.5" font-family="Helvetica,sans-Serif" font-size="10.00">app.adc_ads124s08.Ads124s08.wait</text>
<text xml:space="preserve" text-anchor="middle" x="542.5" y="-6.5" font-family="Helvetica,sans-Serif" font-size="10.00">_drdy_falling_edge</text>
</a>
</g>
</g>
<!-- Node1&#45;&gt;Node3 -->
<g id="edge2_Node000001_Node000003" class="edge">
<title>Node1&#45;&gt;Node3</title>
<g id="a_edge2_Node000001_Node000003"><a xlink:title=" ">
<path fill="none" stroke="#63b8ff" d="M665.72,-29.6C654.07,-28.3 642.27,-26.99 630.84,-25.71"/>
<polygon fill="#63b8ff" stroke="#63b8ff" points="665.01,-33.04 675.33,-30.66 665.78,-26.08 665.01,-33.04"/>
</a>
</g>
</g>
<!-- Node4 -->
<g id="Node000004" class="node">
<title>Node4</title>
<g id="a_Node000004"><a xlink:href="classapp_1_1adc__ads124s08_1_1_ads124s08.html#ac53728ccbaada975b3204c4e3a4364aa" target="_top" xlink:title="Lit un code de données 24 bits depuis l&#39;ADC.">
<polygon fill="white" stroke="#666666" points="407.75,-32 231.25,-32 231.25,0 407.75,0 407.75,-32"/>
<text xml:space="preserve" text-anchor="start" x="239.25" y="-18.5" font-family="Helvetica,sans-Serif" font-size="10.00">app.adc_ads124s08.Ads124s08.read</text>
<text xml:space="preserve" text-anchor="middle" x="319.5" y="-6.5" font-family="Helvetica,sans-Serif" font-size="10.00">_code24</text>
</a>
</g>
</g>
<!-- Node3&#45;&gt;Node4 -->
<g id="edge3_Node000003_Node000004" class="edge">
<title>Node3&#45;&gt;Node4</title>
<g id="a_edge3_Node000003_Node000004"><a xlink:title=" ">
<path fill="none" stroke="#63b8ff" d="M442.66,-16C431.08,-16 419.34,-16 407.93,-16"/>
<polygon fill="#63b8ff" stroke="#63b8ff" points="442.64,-19.5 452.64,-16 442.64,-12.5 442.64,-19.5"/>
</a>
</g>
</g>
<!-- Node5 -->
<g id="Node000005" class="node">
<title>Node5</title>
<g id="a_Node000005"><a xlink:href="classapp_1_1adc__ads124s08_1_1_ads124s08.html#a6c3422094f1375f8e91bff96eb299f69" target="_top" xlink:title="Mesure la résistance d&#39;une sonde via l&#39;ADC.">
<polygon fill="white" stroke="#666666" points="195.25,-32 0,-32 0,0 195.25,0 195.25,-32"/>
<text xml:space="preserve" text-anchor="start" x="8" y="-18.5" font-family="Helvetica,sans-Serif" font-size="10.00">app.adc_ads124s08.Ads124s08.measure</text>
<text xml:space="preserve" text-anchor="middle" x="97.62" y="-6.5" font-family="Helvetica,sans-Serif" font-size="10.00">_resistance</text>
</a>
</g>
</g>
<!-- Node4&#45;&gt;Node5 -->
<g id="edge4_Node000004_Node000005" class="edge">
<title>Node4&#45;&gt;Node5</title>
<g id="a_edge4_Node000004_Node000005"><a xlink:title=" ">
<path fill="none" stroke="#63b8ff" d="M219.72,-16C211.71,-16 203.62,-16 195.62,-16"/>
<polygon fill="#63b8ff" stroke="#63b8ff" points="219.45,-19.5 229.45,-16 219.45,-12.5 219.45,-19.5"/>
</a>
</g>
</g>
<!-- Node5&#45;&gt;Node5 -->
<g id="edge5_Node000005_Node000005" class="edge">
<title>Node5&#45;&gt;Node5</title>
<g id="a_edge5_Node000005_Node000005"><a xlink:title=" ">
<path fill="none" stroke="#63b8ff" d="M134.86,-43.54C128.79,-47.41 116.37,-50 97.62,-50 63.82,-50 50.62,-41.58 58.01,-32.44"/>
<polygon fill="#63b8ff" stroke="#63b8ff" points="138.25,-44.43 136.92,-33.92 131.4,-42.97 138.25,-44.43"/>
</a>
</g>
</g>
</g>
</svg>
