<?xml version="1.0" encoding="UTF-8" standalone="no"?>
<!DOCTYPE svg PUBLIC "-//W3C//DTD SVG 1.1//EN"
 "http://www.w3.org/Graphics/SVG/1.1/DTD/svg11.dtd">
<!-- Generated by graphviz version 13.1.2 (20250808.2320)
 -->
<!-- Title: app.adc_ads124s08.Ads124s08.configure_channel Pages: 1 -->
<svg width="641pt" height="188pt"
 viewBox="0.00 0.00 641.00 188.00" xmlns="http://www.w3.org/2000/svg" xmlns:xlink="http://www.w3.org/1999/xlink">
<g id="graph0" class="graph" transform="scale(1 1) rotate(0) translate(4 183.88)">
<title>app.adc_ads124s08.Ads124s08.configure_channel</title>
<!-- Node1 -->
<g id="Node000001" class="node">
<title>Node1</title>
<g id="a_Node000001"><a xlink:title="Configure un canal ADC avec ses paramètres de mesure.">
<polygon fill="#999999" stroke="#666666" points="197.5,-126 0,-126 0,-94 197.5,-94 197.5,-126"/>
<text xml:space="preserve" text-anchor="start" x="8" y="-112.5" font-family="Helvetica,sans-Serif" font-size="10.00">app.adc_ads124s08.Ads124s08.configure</text>
<text xml:space="preserve" text-anchor="middle" x="98.75" y="-100.5" font-family="Helvetica,sans-Serif" font-size="10.00">_channel</text>
</a>
</g>
</g>
<!-- Node2 -->
<g id="Node000002" class="node">
<title>Node2</title>
<g id="a_Node000002"><a xlink:href="classapp_1_1adc__ads124s08_1_1_ads124s08.html#a2f6a4281f1eaac0a7120e6b507b1c9e6" target="_top" xlink:title="Lit un ou plusieurs registres de l&#39;ADC via SPI.">
<polygon fill="white" stroke="#666666" points="633,-177 453.5,-177 453.5,-157 633,-157 633,-177"/>
<text xml:space="preserve" text-anchor="middle" x="543.25" y="-163.5" font-family="Helvetica,sans-Serif" font-size="10.00">app.adc_ads124s08.Ads124s08._rreg</text>
</a>
</g>
</g>
<!-- Node1&#45;&gt;Node2 -->
<g id="edge1_Node000001_Node000002" class="edge">
<title>Node1&#45;&gt;Node2</title>
<g id="a_edge1_Node000001_Node000002"><a xlink:title=" ">
<path fill="none" stroke="#63b8ff" d="M128.65,-126.37C155.01,-140.3 195.54,-159.25 233.5,-167 302.1,-181.01 381.08,-180.72 441.98,-177.08"/>
<polygon fill="#63b8ff" stroke="#63b8ff" points="441.87,-180.59 451.62,-176.46 441.42,-173.61 441.87,-180.59"/>
</a>
</g>
</g>
<!-- Node3 -->
<g id="Node000003" class="node">
<title>Node3</title>
<g id="a_Node000003"><a xlink:href="classapp_1_1adc__ads124s08_1_1_ads124s08.html#a6c3a8c9cc298fbe29123898f8e404b82" target="_top" xlink:title="Écrit dans un ou plusieurs registres de l&#39;ADC via SPI.">
<polygon fill="white" stroke="#666666" points="417.5,-158 233.5,-158 233.5,-138 417.5,-138 417.5,-158"/>
<text xml:space="preserve" text-anchor="middle" x="325.5" y="-144.5" font-family="Helvetica,sans-Serif" font-size="10.00">app.adc_ads124s08.Ads124s08._wreg</text>
</a>
</g>
</g>
<!-- Node1&#45;&gt;Node3 -->
<g id="edge2_Node000001_Node000003" class="edge">
<title>Node1&#45;&gt;Node3</title>
<g id="a_edge2_Node000001_Node000003"><a xlink:title=" ">
<path fill="none" stroke="#63b8ff" d="M197.02,-126.45C215.22,-129.52 233.96,-132.69 251.28,-135.62"/>
<polygon fill="#63b8ff" stroke="#63b8ff" points="250.5,-139.04 260.94,-137.25 251.66,-132.14 250.5,-139.04"/>
</a>
</g>
</g>
<!-- Node4 -->
<g id="Node000004" class="node">
<title>Node4</title>
<g id="a_Node000004"><a xlink:href="namespaceapp_1_1adc__ads124s08.html#a0117399a18d516c747ca6b060599452f" target="_top" xlink:title="Encode le gain PGA en code binaire pour le registre.">
<polygon fill="white" stroke="#666666" points="405.88,-120 245.12,-120 245.12,-100 405.88,-100 405.88,-120"/>
<text xml:space="preserve" text-anchor="middle" x="325.5" y="-106.5" font-family="Helvetica,sans-Serif" font-size="10.00">app.adc_ads124s08.encode_gain</text>
</a>
</g>
</g>
<!-- Node1&#45;&gt;Node4 -->
<g id="edge4_Node000001_Node000004" class="edge">
<title>Node1&#45;&gt;Node4</title>
<g id="a_edge4_Node000001_Node000004"><a xlink:title=" ">
<path fill="none" stroke="#63b8ff" d="M197.67,-110C209.6,-110 221.74,-110 233.56,-110"/>
<polygon fill="#63b8ff" stroke="#63b8ff" points="233.25,-113.5 243.25,-110 233.25,-106.5 233.25,-113.5"/>
</a>
</g>
</g>
<!-- Node5 -->
<g id="Node000005" class="node">
<title>Node5</title>
<g id="a_Node000005"><a xlink:href="namespaceapp_1_1adc__ads124s08.html#a8f9279b8505f8d634ed73c51dcab29c9" target="_top" xlink:title="Encode la magnitude IDAC en code binaire pour le registre.">
<polygon fill="white" stroke="#666666" points="394.25,-82 256.75,-82 256.75,-50 394.25,-50 394.25,-82"/>
<text xml:space="preserve" text-anchor="start" x="264.75" y="-68.5" font-family="Helvetica,sans-Serif" font-size="10.00">app.adc_ads124s08.encode</text>
<text xml:space="preserve" text-anchor="middle" x="325.5" y="-56.5" font-family="Helvetica,sans-Serif" font-size="10.00">_idac_uA</text>
</a>
</g>
</g>
<!-- Node1&#45;&gt;Node5 -->
<g id="edge5_Node000001_Node000005" class="edge">
<title>Node1&#45;&gt;Node5</title>
<g id="a_edge5_Node000001_Node000005"><a xlink:title=" ">
<path fill="none" stroke="#63b8ff" d="M183.76,-93.55C203.86,-89.62 225.26,-85.43 245.15,-81.53"/>
<polygon fill="#63b8ff" stroke="#63b8ff" points="245.72,-84.99 254.86,-79.63 244.37,-78.12 245.72,-84.99"/>
</a>
</g>
</g>
<!-- Node6 -->
<g id="Node000006" class="node">
<title>Node6</title>
<g id="a_Node000006"><a xlink:href="classapp_1_1adc__ads124s08_1_1_ads124s08.html#a7e7fb10a1acebe2f4200a52670c2fb0c" target="_top" xlink:title="Configure le mode single&#45;shot low&#45;latency de l&#39;ADC.">
<polygon fill="white" stroke="#666666" points="411.12,-32 239.88,-32 239.88,0 411.12,0 411.12,-32"/>
<text xml:space="preserve" text-anchor="start" x="247.88" y="-18.5" font-family="Helvetica,sans-Serif" font-size="10.00">app.adc_ads124s08.Ads124s08.set</text>
<text xml:space="preserve" text-anchor="middle" x="325.5" y="-6.5" font-family="Helvetica,sans-Serif" font-size="10.00">_single_shot_lowlatency</text>
</a>
</g>
</g>
<!-- Node1&#45;&gt;Node6 -->
<g id="edge6_Node000001_Node000006" class="edge">
<title>Node1&#45;&gt;Node6</title>
<g id="a_edge6_Node000001_Node000006"><a xlink:title=" ">
<path fill="none" stroke="#63b8ff" d="M127.4,-93.57C153.9,-78.35 195.41,-55.87 233.5,-41 238.09,-39.21 242.85,-37.49 247.69,-35.86"/>
<polygon fill="#63b8ff" stroke="#63b8ff" points="248.47,-39.29 256.92,-32.89 246.33,-32.62 248.47,-39.29"/>
</a>
</g>
</g>
<!-- Node3&#45;&gt;Node2 -->
<g id="edge3_Node000003_Node000002" class="edge">
<title>Node3&#45;&gt;Node2</title>
<g id="a_edge3_Node000003_Node000002"><a xlink:title=" ">
<path fill="none" stroke="#63b8ff" d="M418,-156.06C425.79,-156.74 433.7,-157.44 441.56,-158.13"/>
<polygon fill="#63b8ff" stroke="#63b8ff" points="441.24,-161.62 451.51,-159.01 441.86,-154.65 441.24,-161.62"/>
</a>
</g>
</g>
</g>
</svg>
