<?xml version="1.0" encoding="UTF-8" standalone="no"?>
<!DOCTYPE svg PUBLIC "-//W3C//DTD SVG 1.1//EN"
 "http://www.w3.org/Graphics/SVG/1.1/DTD/svg11.dtd">
<!-- Generated by graphviz version 13.1.2 (20250808.2320)
 -->
<!-- Title: app.hw_tmux1204.Tmux1204 Pages: 1 -->
<svg width="144pt" height="124pt"
 viewBox="0.00 0.00 144.00 124.00" xmlns="http://www.w3.org/2000/svg" xmlns:xlink="http://www.w3.org/1999/xlink">
<g id="graph0" class="graph" transform="scale(1 1) rotate(0) translate(4 120)">
<title>app.hw_tmux1204.Tmux1204</title>
<!-- Node1 -->
<g id="Node000001" class="node">
<title>Node1</title>
<g id="a_Node000001"><a xlink:title="Pilote pour le multiplexeur TMUX1204.">
<polygon fill="#999999" stroke="none" points="136.25,-116 0,-116 0,0 136.25,0 136.25,-116"/>
<text xml:space="preserve" text-anchor="start" x="4" y="-102.5" font-family="Helvetica,sans-Serif" font-size="10.00">app.hw_tmux1204.Tmux1204</text>
<text xml:space="preserve" text-anchor="start" x="14.62" y="-86.5" font-family="Helvetica,sans-Serif" font-size="10.00">+</text>
<text xml:space="preserve" text-anchor="start" x="35.25" y="-86.5" font-family="Helvetica,sans-Serif" font-size="10.00">gpio_a1</text>
<text xml:space="preserve" text-anchor="start" x="14.62" y="-70.5" font-family="Helvetica,sans-Serif" font-size="10.00">+</text>
<text xml:space="preserve" text-anchor="start" x="35.25" y="-70.5" font-family="Helvetica,sans-Serif" font-size="10.00">gpio_a0</text>
<text xml:space="preserve" text-anchor="start" x="14.62" y="-54.5" font-family="Helvetica,sans-Serif" font-size="10.00">+</text>
<text xml:space="preserve" text-anchor="start" x="35.25" y="-54.5" font-family="Helvetica,sans-Serif" font-size="10.00">__init__()</text>
<text xml:space="preserve" text-anchor="start" x="14.62" y="-38.5" font-family="Helvetica,sans-Serif" font-size="10.00">+</text>
<text xml:space="preserve" text-anchor="start" x="35.25" y="-38.5" font-family="Helvetica,sans-Serif" font-size="10.00">close()</text>
<text xml:space="preserve" text-anchor="start" x="14.62" y="-22.5" font-family="Helvetica,sans-Serif" font-size="10.00">+</text>
<text xml:space="preserve" text-anchor="start" x="35.25" y="-22.5" font-family="Helvetica,sans-Serif" font-size="10.00">set_bits()</text>
<text xml:space="preserve" text-anchor="start" x="14.62" y="-6.5" font-family="Helvetica,sans-Serif" font-size="10.00">+</text>
<text xml:space="preserve" text-anchor="start" x="35.25" y="-6.5" font-family="Helvetica,sans-Serif" font-size="10.00">select_rref_ohm()</text>
<polygon fill="#666666" stroke="#666666" points="0,-98 0,-98 136.25,-98 136.25,-98 0,-98"/>
<polygon fill="#666666" stroke="#666666" points="0,-66 0,-66 33.25,-66 33.25,-66 0,-66"/>
<polygon fill="#666666" stroke="#666666" points="33.25,-66 33.25,-66 136.25,-66 136.25,-66 33.25,-66"/>
<polygon fill="none" stroke="#666666" points="0,0 0,-116 136.25,-116 136.25,0 0,0"/>
</a>
</g>
</g>
</g>
</svg>
