<?xml version="1.0" encoding="UTF-8" standalone="no"?>
<!DOCTYPE svg PUBLIC "-//W3C//DTD SVG 1.1//EN"
 "http://www.w3.org/Graphics/SVG/1.1/DTD/svg11.dtd">
<!-- Generated by graphviz version 13.1.2 (20250808.2320)
 -->
<!-- Title: app.adc_ads124s08.Ads124s08.wait_drdy_falling_edge Pages: 1 -->
<svg width="619pt" height="40pt"
 viewBox="0.00 0.00 619.00 40.00" xmlns="http://www.w3.org/2000/svg" xmlns:xlink="http://www.w3.org/1999/xlink">
<g id="graph0" class="graph" transform="scale(1 1) rotate(0) translate(4 36)">
<title>app.adc_ads124s08.Ads124s08.wait_drdy_falling_edge</title>
<!-- Node1 -->
<g id="Node000001" class="node">
<title>Node1</title>
<g id="a_Node000001"><a xlink:title="Attend un front descendant sur DRDY (HIGH &#45;&gt; LOW) avec timeout.">
<polygon fill="#999999" stroke="#666666" points="175.75,-32 0,-32 0,0 175.75,0 175.75,-32"/>
<text xml:space="preserve" text-anchor="start" x="8" y="-18.5" font-family="Helvetica,sans-Serif" font-size="10.00">app.adc_ads124s08.Ads124s08.wait</text>
<text xml:space="preserve" text-anchor="middle" x="87.88" y="-6.5" font-family="Helvetica,sans-Serif" font-size="10.00">_drdy_falling_edge</text>
</a>
</g>
</g>
<!-- Node2 -->
<g id="Node000002" class="node">
<title>Node2</title>
<g id="a_Node000002"><a xlink:href="classapp_1_1adc__ads124s08_1_1_ads124s08.html#a6c3a8c9cc298fbe29123898f8e404b82" target="_top" xlink:title="Écrit dans un ou plusieurs registres de l&#39;ADC via SPI.">
<polygon fill="white" stroke="#666666" points="395.75,-26 211.75,-26 211.75,-6 395.75,-6 395.75,-26"/>
<text xml:space="preserve" text-anchor="middle" x="303.75" y="-12.5" font-family="Helvetica,sans-Serif" font-size="10.00">app.adc_ads124s08.Ads124s08._wreg</text>
</a>
</g>
</g>
<!-- Node1&#45;&gt;Node2 -->
<g id="edge1_Node000001_Node000002" class="edge">
<title>Node1&#45;&gt;Node2</title>
<g id="a_edge1_Node000001_Node000002"><a xlink:title=" ">
<path fill="none" stroke="#63b8ff" d="M176.17,-16C184.1,-16 192.18,-16 200.23,-16"/>
<polygon fill="#63b8ff" stroke="#63b8ff" points="200.05,-19.5 210.05,-16 200.05,-12.5 200.05,-19.5"/>
</a>
</g>
</g>
<!-- Node3 -->
<g id="Node000003" class="node">
<title>Node3</title>
<g id="a_Node000003"><a xlink:href="classapp_1_1adc__ads124s08_1_1_ads124s08.html#a2f6a4281f1eaac0a7120e6b507b1c9e6" target="_top" xlink:title="Lit un ou plusieurs registres de l&#39;ADC via SPI.">
<polygon fill="white" stroke="#666666" points="611.25,-26 431.75,-26 431.75,-6 611.25,-6 611.25,-26"/>
<text xml:space="preserve" text-anchor="middle" x="521.5" y="-12.5" font-family="Helvetica,sans-Serif" font-size="10.00">app.adc_ads124s08.Ads124s08._rreg</text>
</a>
</g>
</g>
<!-- Node2&#45;&gt;Node3 -->
<g id="edge2_Node000002_Node000003" class="edge">
<title>Node2&#45;&gt;Node3</title>
<g id="a_edge2_Node000002_Node000003"><a xlink:title=" ">
<path fill="none" stroke="#63b8ff" d="M396.25,-16C404.04,-16 411.95,-16 419.81,-16"/>
<polygon fill="#63b8ff" stroke="#63b8ff" points="419.76,-19.5 429.76,-16 419.76,-12.5 419.76,-19.5"/>
</a>
</g>
</g>
</g>
</svg>
