<?xml version="1.0" encoding="UTF-8" standalone="no"?>
<!DOCTYPE svg PUBLIC "-//W3C//DTD SVG 1.1//EN"
 "http://www.w3.org/Graphics/SVG/1.1/DTD/svg11.dtd">
<!-- Generated by graphviz version 13.1.2 (20250808.2320)
 -->
<!-- Title: app.adc_ads124s08.Ads124s08._rreg Pages: 1 -->
<svg width="1101pt" height="198pt"
 viewBox="0.00 0.00 1101.00 198.00" xmlns="http://www.w3.org/2000/svg" xmlns:xlink="http://www.w3.org/1999/xlink">
<g id="graph0" class="graph" transform="scale(1 1) rotate(0) translate(4 194)">
<title>app.adc_ads124s08.Ads124s08._rreg</title>
<!-- Node1 -->
<g id="Node000001" class="node">
<title>Node1</title>
<g id="a_Node000001"><a xlink:title="Lit un ou plusieurs registres de l&#39;ADC via SPI.">
<polygon fill="#999999" stroke="#666666" points="1092.5,-102 913,-102 913,-82 1092.5,-82 1092.5,-102"/>
<text xml:space="preserve" text-anchor="middle" x="1002.75" y="-88.5" font-family="Helvetica,sans-Serif" font-size="10.00">app.adc_ads124s08.Ads124s08._rreg</text>
</a>
</g>
</g>
<!-- Node2 -->
<g id="Node000002" class="node">
<title>Node2</title>
<g id="a_Node000002"><a xlink:href="classapp_1_1adc__ads124s08_1_1_ads124s08.html#a6c3a8c9cc298fbe29123898f8e404b82" target="_top" xlink:title="Écrit dans un ou plusieurs registres de l&#39;ADC via SPI.">
<polygon fill="white" stroke="#666666" points="869.12,-146 685.12,-146 685.12,-126 869.12,-126 869.12,-146"/>
<text xml:space="preserve" text-anchor="middle" x="777.12" y="-132.5" font-family="Helvetica,sans-Serif" font-size="10.00">app.adc_ads124s08.Ads124s08._wreg</text>
</a>
</g>
</g>
<!-- Node1&#45;&gt;Node2 -->
<g id="edge1_Node000001_Node000002" class="edge">
<title>Node1&#45;&gt;Node2</title>
<g id="a_edge1_Node000001_Node000002"><a xlink:title=" ">
<path fill="none" stroke="#63b8ff" d="M938.82,-104.71C919.04,-108.68 897.12,-113.05 877,-117 862.76,-119.79 847.36,-122.77 833.05,-125.52"/>
<polygon fill="#63b8ff" stroke="#63b8ff" points="939.28,-108.19 948.39,-102.79 937.9,-101.33 939.28,-108.19"/>
</a>
</g>
</g>
<!-- Node3 -->
<g id="Node000003" class="node">
<title>Node3</title>
<g id="a_Node000003"><a xlink:href="classapp_1_1adc__ads124s08_1_1_ads124s08.html#abe455695d580ba27f0e5c559414fefbf" target="_top" xlink:title="Configure un canal ADC avec ses paramètres de mesure.">
<polygon fill="white" stroke="#666666" points="641.25,-190 443.75,-190 443.75,-158 641.25,-158 641.25,-190"/>
<text xml:space="preserve" text-anchor="start" x="451.75" y="-176.5" font-family="Helvetica,sans-Serif" font-size="10.00">app.adc_ads124s08.Ads124s08.configure</text>
<text xml:space="preserve" text-anchor="middle" x="542.5" y="-164.5" font-family="Helvetica,sans-Serif" font-size="10.00">_channel</text>
</a>
</g>
</g>
<!-- Node1&#45;&gt;Node3 -->
<g id="edge7_Node000001_Node000003" class="edge">
<title>Node1&#45;&gt;Node3</title>
<g id="a_edge7_Node000001_Node000003"><a xlink:title=" ">
<path fill="none" stroke="#63b8ff" d="M976.95,-108.4C952.62,-123.53 913.91,-145.09 877,-155 799.71,-175.75 708.83,-179.65 641.48,-178.84"/>
<polygon fill="#63b8ff" stroke="#63b8ff" points="978.61,-111.5 985.17,-103.18 974.85,-105.59 978.61,-111.5"/>
</a>
</g>
</g>
<!-- Node7 -->
<g id="Node000007" class="node">
<title>Node7</title>
<g id="a_Node000007"><a xlink:href="classapp_1_1adc__ads124s08_1_1_ads124s08.html#a29331f015d0a23fb89fa1aedce5a33b3" target="_top" xlink:title="Mesure la température d&#39;un capteur via l&#39;ADC.">
<polygon fill="white" stroke="#666666" points="874.75,-108 679.5,-108 679.5,-76 874.75,-76 874.75,-108"/>
<text xml:space="preserve" text-anchor="start" x="687.5" y="-94.5" font-family="Helvetica,sans-Serif" font-size="10.00">app.adc_ads124s08.Ads124s08.measure</text>
<text xml:space="preserve" text-anchor="middle" x="777.12" y="-82.5" font-family="Helvetica,sans-Serif" font-size="10.00">_temperature</text>
</a>
</g>
</g>
<!-- Node1&#45;&gt;Node7 -->
<g id="edge8_Node000001_Node000007" class="edge">
<title>Node1&#45;&gt;Node7</title>
<g id="a_edge8_Node000001_Node000007"><a xlink:title=" ">
<path fill="none" stroke="#63b8ff" d="M901.28,-92C892.52,-92 883.66,-92 874.93,-92"/>
<polygon fill="#63b8ff" stroke="#63b8ff" points="901.21,-95.5 911.21,-92 901.21,-88.5 901.21,-95.5"/>
</a>
</g>
</g>
<!-- Node8 -->
<g id="Node000008" class="node">
<title>Node8</title>
<g id="a_Node000008"><a xlink:href="classapp_1_1adc__ads124s08_1_1_ads124s08.html#af51ca6a1c8d208a333556ce44e9cbb17" target="_top" xlink:title="Lit le registre de gain PGA pour diagnostic.">
<polygon fill="white" stroke="#666666" points="877,-58 677.25,-58 677.25,-38 877,-38 877,-58"/>
<text xml:space="preserve" text-anchor="middle" x="777.12" y="-44.5" font-family="Helvetica,sans-Serif" font-size="10.00">app.adc_ads124s08.Ads124s08.read_gain</text>
</a>
</g>
</g>
<!-- Node1&#45;&gt;Node8 -->
<g id="edge9_Node000001_Node000008" class="edge">
<title>Node1&#45;&gt;Node8</title>
<g id="a_edge9_Node000001_Node000008"><a xlink:title=" ">
<path fill="none" stroke="#63b8ff" d="M938.82,-79.29C919.04,-75.32 897.12,-70.95 877,-67 862.76,-64.21 847.36,-61.23 833.05,-58.48"/>
<polygon fill="#63b8ff" stroke="#63b8ff" points="937.9,-82.67 948.39,-81.21 939.28,-75.81 937.9,-82.67"/>
</a>
</g>
</g>
<!-- Node9 -->
<g id="Node000009" class="node">
<title>Node9</title>
<g id="a_Node000009"><a xlink:href="classapp_1_1adc__ads124s08_1_1_ads124s08.html#a424495225e0f75a1aa7cc76067b6110e" target="_top" xlink:title="Lit le registre de configuration de la référence.">
<polygon fill="white" stroke="#666666" points="873.62,-20 680.62,-20 680.62,0 873.62,0 873.62,-20"/>
<text xml:space="preserve" text-anchor="middle" x="777.12" y="-6.5" font-family="Helvetica,sans-Serif" font-size="10.00">app.adc_ads124s08.Ads124s08.read_ref</text>
</a>
</g>
</g>
<!-- Node1&#45;&gt;Node9 -->
<g id="edge10_Node000001_Node000009" class="edge">
<title>Node1&#45;&gt;Node9</title>
<g id="a_edge10_Node000001_Node000009"><a xlink:title=" ">
<path fill="none" stroke="#63b8ff" d="M975.38,-75.95C950.76,-61.64 912.57,-41.13 877,-29 867.16,-25.64 856.55,-22.82 846.06,-20.46"/>
<polygon fill="#63b8ff" stroke="#63b8ff" points="973.36,-78.83 983.75,-80.9 976.92,-72.8 973.36,-78.83"/>
</a>
</g>
</g>
<!-- Node2&#45;&gt;Node3 -->
<g id="edge2_Node000002_Node000003" class="edge">
<title>Node2&#45;&gt;Node3</title>
<g id="a_edge2_Node000002_Node000003"><a xlink:title=" ">
<path fill="none" stroke="#63b8ff" d="M700.72,-148.32C681.83,-151.4 661.29,-154.76 641.48,-157.99"/>
<polygon fill="#63b8ff" stroke="#63b8ff" points="701.14,-151.79 710.45,-146.73 700.02,-144.89 701.14,-151.79"/>
</a>
</g>
</g>
<!-- Node4 -->
<g id="Node000004" class="node">
<title>Node4</title>
<g id="a_Node000004"><a xlink:href="classapp_1_1adc__ads124s08_1_1_ads124s08.html#a6cbdea3f16ae1dff329ec8e45ef859d1" target="_top" xlink:title="Attend un front descendant sur DRDY (HIGH &#45;&gt; LOW) avec timeout.">
<polygon fill="white" stroke="#666666" points="630.38,-140 454.62,-140 454.62,-108 630.38,-108 630.38,-140"/>
<text xml:space="preserve" text-anchor="start" x="462.62" y="-126.5" font-family="Helvetica,sans-Serif" font-size="10.00">app.adc_ads124s08.Ads124s08.wait</text>
<text xml:space="preserve" text-anchor="middle" x="542.5" y="-114.5" font-family="Helvetica,sans-Serif" font-size="10.00">_drdy_falling_edge</text>
</a>
</g>
</g>
<!-- Node2&#45;&gt;Node4 -->
<g id="edge3_Node000002_Node000004" class="edge">
<title>Node2&#45;&gt;Node4</title>
<g id="a_edge3_Node000002_Node000004"><a xlink:title=" ">
<path fill="none" stroke="#63b8ff" d="M673.48,-130.71C659.21,-129.97 644.66,-129.22 630.71,-128.5"/>
<polygon fill="#63b8ff" stroke="#63b8ff" points="673.17,-134.19 683.34,-131.21 673.54,-127.2 673.17,-134.19"/>
</a>
</g>
</g>
<!-- Node5 -->
<g id="Node000005" class="node">
<title>Node5</title>
<g id="a_Node000005"><a xlink:href="classapp_1_1adc__ads124s08_1_1_ads124s08.html#ac53728ccbaada975b3204c4e3a4364aa" target="_top" xlink:title="Lit un code de données 24 bits depuis l&#39;ADC.">
<polygon fill="white" stroke="#666666" points="407.75,-140 231.25,-140 231.25,-108 407.75,-108 407.75,-140"/>
<text xml:space="preserve" text-anchor="start" x="239.25" y="-126.5" font-family="Helvetica,sans-Serif" font-size="10.00">app.adc_ads124s08.Ads124s08.read</text>
<text xml:space="preserve" text-anchor="middle" x="319.5" y="-114.5" font-family="Helvetica,sans-Serif" font-size="10.00">_code24</text>
</a>
</g>
</g>
<!-- Node4&#45;&gt;Node5 -->
<g id="edge4_Node000004_Node000005" class="edge">
<title>Node4&#45;&gt;Node5</title>
<g id="a_edge4_Node000004_Node000005"><a xlink:title=" ">
<path fill="none" stroke="#63b8ff" d="M442.66,-124C431.08,-124 419.34,-124 407.93,-124"/>
<polygon fill="#63b8ff" stroke="#63b8ff" points="442.64,-127.5 452.64,-124 442.64,-120.5 442.64,-127.5"/>
</a>
</g>
</g>
<!-- Node6 -->
<g id="Node000006" class="node">
<title>Node6</title>
<g id="a_Node000006"><a xlink:href="classapp_1_1adc__ads124s08_1_1_ads124s08.html#a6c3422094f1375f8e91bff96eb299f69" target="_top" xlink:title="Mesure la résistance d&#39;une sonde via l&#39;ADC.">
<polygon fill="white" stroke="#666666" points="195.25,-140 0,-140 0,-108 195.25,-108 195.25,-140"/>
<text xml:space="preserve" text-anchor="start" x="8" y="-126.5" font-family="Helvetica,sans-Serif" font-size="10.00">app.adc_ads124s08.Ads124s08.measure</text>
<text xml:space="preserve" text-anchor="middle" x="97.62" y="-114.5" font-family="Helvetica,sans-Serif" font-size="10.00">_resistance</text>
</a>
</g>
</g>
<!-- Node5&#45;&gt;Node6 -->
<g id="edge5_Node000005_Node000006" class="edge">
<title>Node5&#45;&gt;Node6</title>
<g id="a_edge5_Node000005_Node000006"><a xlink:title=" ">
<path fill="none" stroke="#63b8ff" d="M219.72,-124C211.71,-124 203.62,-124 195.62,-124"/>
<polygon fill="#63b8ff" stroke="#63b8ff" points="219.45,-127.5 229.45,-124 219.45,-120.5 219.45,-127.5"/>
</a>
</g>
</g>
<!-- Node6&#45;&gt;Node6 -->
<g id="edge6_Node000006_Node000006" class="edge">
<title>Node6&#45;&gt;Node6</title>
<g id="a_edge6_Node000006_Node000006"><a xlink:title=" ">
<path fill="none" stroke="#63b8ff" d="M134.86,-151.54C128.79,-155.41 116.37,-158 97.62,-158 63.82,-158 50.62,-149.58 58.01,-140.44"/>
<polygon fill="#63b8ff" stroke="#63b8ff" points="138.25,-152.43 136.92,-141.92 131.4,-150.97 138.25,-152.43"/>
</a>
</g>
</g>
</g>
</svg>
