<?xml version="1.0" encoding="UTF-8" standalone="no"?>
<!DOCTYPE svg PUBLIC "-//W3C//DTD SVG 1.1//EN"
 "http://www.w3.org/Graphics/SVG/1.1/DTD/svg11.dtd">
<!-- Generated by graphviz version 13.1.2 (20250808.2320)
 -->
<!-- Title: app.adc_ads124s08.Ads124s08.measure_resistance Pages: 1 -->
<svg width="1065pt" height="128pt"
 viewBox="0.00 0.00 1065.00 128.00" xmlns="http://www.w3.org/2000/svg" xmlns:xlink="http://www.w3.org/1999/xlink">
<g id="graph0" class="graph" transform="scale(1 1) rotate(0) translate(4 124)">
<title>app.adc_ads124s08.Ads124s08.measure_resistance</title>
<!-- Node1 -->
<g id="Node000001" class="node">
<title>Node1</title>
<g id="a_Node000001"><a xlink:title="Mesure la résistance d&#39;une sonde via l&#39;ADC.">
<polygon fill="#999999" stroke="#666666" points="195.25,-54 0,-54 0,-22 195.25,-22 195.25,-54"/>
<text xml:space="preserve" text-anchor="start" x="8" y="-40.5" font-family="Helvetica,sans-Serif" font-size="10.00">app.adc_ads124s08.Ads124s08.measure</text>
<text xml:space="preserve" text-anchor="middle" x="97.62" y="-28.5" font-family="Helvetica,sans-Serif" font-size="10.00">_resistance</text>
</a>
</g>
</g>
<!-- Node1&#45;&gt;Node1 -->
<g id="edge1_Node000001_Node000001" class="edge">
<title>Node1&#45;&gt;Node1</title>
<g id="a_edge1_Node000001_Node000001"><a xlink:title=" ">
<path fill="none" stroke="#63b8ff" d="M58.01,-54.44C50.62,-63.58 63.82,-72 97.62,-72 116.37,-72 128.79,-69.41 134.86,-65.54"/>
<polygon fill="#63b8ff" stroke="#63b8ff" points="138.25,-66.43 136.92,-55.92 131.4,-64.97 138.25,-66.43"/>
</a>
</g>
</g>
<!-- Node2 -->
<g id="Node000002" class="node">
<title>Node2</title>
<g id="a_Node000002"><a xlink:href="classapp_1_1adc__ads124s08_1_1_ads124s08.html#ac53728ccbaada975b3204c4e3a4364aa" target="_top" xlink:title="Lit un code de données 24 bits depuis l&#39;ADC.">
<polygon fill="white" stroke="#666666" points="407.75,-76 231.25,-76 231.25,-44 407.75,-44 407.75,-76"/>
<text xml:space="preserve" text-anchor="start" x="239.25" y="-62.5" font-family="Helvetica,sans-Serif" font-size="10.00">app.adc_ads124s08.Ads124s08.read</text>
<text xml:space="preserve" text-anchor="middle" x="319.5" y="-50.5" font-family="Helvetica,sans-Serif" font-size="10.00">_code24</text>
</a>
</g>
</g>
<!-- Node1&#45;&gt;Node2 -->
<g id="edge2_Node000001_Node000002" class="edge">
<title>Node1&#45;&gt;Node2</title>
<g id="a_edge2_Node000001_Node000002"><a xlink:title=" ">
<path fill="none" stroke="#63b8ff" d="M195.71,-47.71C203.68,-48.51 211.75,-49.32 219.74,-50.12"/>
<polygon fill="#63b8ff" stroke="#63b8ff" points="219.15,-53.58 229.45,-51.09 219.85,-46.61 219.15,-53.58"/>
</a>
</g>
</g>
<!-- Node8 -->
<g id="Node000008" class="node">
<title>Node8</title>
<g id="a_Node000008"><a xlink:href="classapp_1_1adc__ads124s08_1_1_ads124s08.html#a30d1ac487b9ef8dcfb310cea695db0f9" target="_top" xlink:title="Arrête une conversion ADC en cours.">
<polygon fill="white" stroke="#666666" points="407.75,-26 231.25,-26 231.25,-6 407.75,-6 407.75,-26"/>
<text xml:space="preserve" text-anchor="middle" x="319.5" y="-12.5" font-family="Helvetica,sans-Serif" font-size="10.00">app.adc_ads124s08.Ads124s08.stop</text>
</a>
</g>
</g>
<!-- Node1&#45;&gt;Node8 -->
<g id="edge8_Node000001_Node000008" class="edge">
<title>Node1&#45;&gt;Node8</title>
<g id="a_edge8_Node000001_Node000008"><a xlink:title=" ">
<path fill="none" stroke="#63b8ff" d="M195.71,-28.29C203.68,-27.49 211.75,-26.68 219.74,-25.88"/>
<polygon fill="#63b8ff" stroke="#63b8ff" points="219.85,-29.39 229.45,-24.91 219.15,-22.42 219.85,-29.39"/>
</a>
</g>
</g>
<!-- Node3 -->
<g id="Node000003" class="node">
<title>Node3</title>
<g id="a_Node000003"><a xlink:href="namespaceapp_1_1adc__ads124s08.html#a2d49f7c13e0b47db65080ab59febed76" target="_top" xlink:title="Étend le signe d&#39;un code ADC 24 bits vers 32 bits.">
<polygon fill="white" stroke="#666666" points="594.38,-120 470.38,-120 470.38,-88 594.38,-88 594.38,-120"/>
<text xml:space="preserve" text-anchor="start" x="478.38" y="-106.5" font-family="Helvetica,sans-Serif" font-size="10.00">app.adc_ads124s08.sign</text>
<text xml:space="preserve" text-anchor="middle" x="532.38" y="-94.5" font-family="Helvetica,sans-Serif" font-size="10.00">_extend_24</text>
</a>
</g>
</g>
<!-- Node2&#45;&gt;Node3 -->
<g id="edge3_Node000002_Node000003" class="edge">
<title>Node2&#45;&gt;Node3</title>
<g id="a_edge3_Node000002_Node000003"><a xlink:title=" ">
<path fill="none" stroke="#63b8ff" d="M399.32,-76.45C418.88,-80.53 439.75,-84.88 458.98,-88.89"/>
<polygon fill="#63b8ff" stroke="#63b8ff" points="458.11,-92.29 468.61,-90.9 459.54,-85.44 458.11,-92.29"/>
</a>
</g>
</g>
<!-- Node4 -->
<g id="Node000004" class="node">
<title>Node4</title>
<g id="a_Node000004"><a xlink:href="classapp_1_1adc__ads124s08_1_1_ads124s08.html#a5d7414311a828e4231a22b6e414cbfba" target="_top" xlink:title="Démarre une conversion ADC.">
<polygon fill="white" stroke="#666666" points="621,-70 443.75,-70 443.75,-50 621,-50 621,-70"/>
<text xml:space="preserve" text-anchor="middle" x="532.38" y="-56.5" font-family="Helvetica,sans-Serif" font-size="10.00">app.adc_ads124s08.Ads124s08.start</text>
</a>
</g>
</g>
<!-- Node2&#45;&gt;Node4 -->
<g id="edge4_Node000002_Node000004" class="edge">
<title>Node2&#45;&gt;Node4</title>
<g id="a_edge4_Node000002_Node000004"><a xlink:title=" ">
<path fill="none" stroke="#63b8ff" d="M408.1,-60C416.02,-60 424.08,-60 432.09,-60"/>
<polygon fill="#63b8ff" stroke="#63b8ff" points="431.86,-63.5 441.86,-60 431.86,-56.5 431.86,-63.5"/>
</a>
</g>
</g>
<!-- Node5 -->
<g id="Node000005" class="node">
<title>Node5</title>
<g id="a_Node000005"><a xlink:href="classapp_1_1adc__ads124s08_1_1_ads124s08.html#a6cbdea3f16ae1dff329ec8e45ef859d1" target="_top" xlink:title="Attend un front descendant sur DRDY (HIGH &#45;&gt; LOW) avec timeout.">
<polygon fill="white" stroke="#666666" points="620.25,-32 444.5,-32 444.5,0 620.25,0 620.25,-32"/>
<text xml:space="preserve" text-anchor="start" x="452.5" y="-18.5" font-family="Helvetica,sans-Serif" font-size="10.00">app.adc_ads124s08.Ads124s08.wait</text>
<text xml:space="preserve" text-anchor="middle" x="532.38" y="-6.5" font-family="Helvetica,sans-Serif" font-size="10.00">_drdy_falling_edge</text>
</a>
</g>
</g>
<!-- Node2&#45;&gt;Node5 -->
<g id="edge5_Node000002_Node000005" class="edge">
<title>Node2&#45;&gt;Node5</title>
<g id="a_edge5_Node000002_Node000005"><a xlink:title=" ">
<path fill="none" stroke="#63b8ff" d="M399.32,-43.55C412.98,-40.7 427.28,-37.72 441.22,-34.81"/>
<polygon fill="#63b8ff" stroke="#63b8ff" points="441.74,-38.28 450.82,-32.81 440.31,-31.43 441.74,-38.28"/>
</a>
</g>
</g>
<!-- Node6 -->
<g id="Node000006" class="node">
<title>Node6</title>
<g id="a_Node000006"><a xlink:href="classapp_1_1adc__ads124s08_1_1_ads124s08.html#a6c3a8c9cc298fbe29123898f8e404b82" target="_top" xlink:title="Écrit dans un ou plusieurs registres de l&#39;ADC via SPI.">
<polygon fill="white" stroke="#666666" points="841,-26 657,-26 657,-6 841,-6 841,-26"/>
<text xml:space="preserve" text-anchor="middle" x="749" y="-12.5" font-family="Helvetica,sans-Serif" font-size="10.00">app.adc_ads124s08.Ads124s08._wreg</text>
</a>
</g>
</g>
<!-- Node5&#45;&gt;Node6 -->
<g id="edge6_Node000005_Node000006" class="edge">
<title>Node5&#45;&gt;Node6</title>
<g id="a_edge6_Node000005_Node000006"><a xlink:title=" ">
<path fill="none" stroke="#63b8ff" d="M620.67,-16C628.72,-16 636.92,-16 645.09,-16"/>
<polygon fill="#63b8ff" stroke="#63b8ff" points="645.08,-19.5 655.08,-16 645.08,-12.5 645.08,-19.5"/>
</a>
</g>
</g>
<!-- Node7 -->
<g id="Node000007" class="node">
<title>Node7</title>
<g id="a_Node000007"><a xlink:href="classapp_1_1adc__ads124s08_1_1_ads124s08.html#a2f6a4281f1eaac0a7120e6b507b1c9e6" target="_top" xlink:title="Lit un ou plusieurs registres de l&#39;ADC via SPI.">
<polygon fill="white" stroke="#666666" points="1056.5,-26 877,-26 877,-6 1056.5,-6 1056.5,-26"/>
<text xml:space="preserve" text-anchor="middle" x="966.75" y="-12.5" font-family="Helvetica,sans-Serif" font-size="10.00">app.adc_ads124s08.Ads124s08._rreg</text>
</a>
</g>
</g>
<!-- Node6&#45;&gt;Node7 -->
<g id="edge7_Node000006_Node000007" class="edge">
<title>Node6&#45;&gt;Node7</title>
<g id="a_edge7_Node000006_Node000007"><a xlink:title=" ">
<path fill="none" stroke="#63b8ff" d="M841.5,-16C849.29,-16 857.2,-16 865.06,-16"/>
<polygon fill="#63b8ff" stroke="#63b8ff" points="865.01,-19.5 875.01,-16 865.01,-12.5 865.01,-19.5"/>
</a>
</g>
</g>
</g>
</svg>
