<?xml version="1.0" encoding="UTF-8" standalone="no"?>
<!DOCTYPE svg PUBLIC "-//W3C//DTD SVG 1.1//EN"
 "http://www.w3.org/Graphics/SVG/1.1/DTD/svg11.dtd">
<!-- Generated by graphviz version 13.1.2 (20250808.2320)
 -->
<!-- Title: Graphe hiérarchique des classes Pages: 1 -->
<svg width="236pt" height="78pt"
 viewBox="0.00 0.00 236.00 78.00" xmlns="http://www.w3.org/2000/svg" xmlns:xlink="http://www.w3.org/1999/xlink">
<g id="graph0" class="graph" transform="scale(1 1) rotate(0) translate(4 74)">
<title>Graphe hiérarchique des classes</title>
<!-- Node0 -->
<g id="Node000000" class="node">
<title>Node0</title>
<g id="a_Node000000"><a xlink:title=" ">
<polygon fill="#e0e0e0" stroke="#999999" points="59.5,-48 0,-48 0,-28 59.5,-28 59.5,-48"/>
<text xml:space="preserve" text-anchor="middle" x="29.75" y="-34.5" font-family="Helvetica,sans-Serif" font-size="10.00">Exception</text>
</a>
</g>
</g>
<!-- Node1 -->
<g id="Node000001" class="node">
<title>Node1</title>
<g id="a_Node000001"><a xlink:href="classapp_1_1api__client_1_1_api_error.html" target="_top" xlink:title="Exception pour les erreurs d&#39;API.">
<polygon fill="white" stroke="#666666" points="218.75,-70 104.5,-70 104.5,-50 218.75,-50 218.75,-70"/>
<text xml:space="preserve" text-anchor="middle" x="161.62" y="-56.5" font-family="Helvetica,sans-Serif" font-size="10.00">app.api_client.ApiError</text>
</a>
</g>
</g>
<!-- Node0&#45;&gt;Node1 -->
<g id="edge1_Node000000_Node000001" class="edge">
<title>Node0&#45;&gt;Node1</title>
<g id="a_edge1_Node000000_Node000001"><a xlink:title=" ">
<path fill="none" stroke="#63b8ff" d="M71.19,-44.85C81.64,-46.62 93.07,-48.56 104.17,-50.44"/>
<polygon fill="#63b8ff" stroke="#63b8ff" points="71.83,-41.41 61.39,-43.19 70.66,-48.31 71.83,-41.41"/>
</a>
</g>
</g>
<!-- Node2 -->
<g id="Node000002" class="node">
<title>Node2</title>
<g id="a_Node000002"><a xlink:href="classapp_1_1resistance__simulation_1_1_resistance_simulation_error.html" target="_top" xlink:title="Exception pour les erreurs de simulation de résistance.">
<polygon fill="white" stroke="#666666" points="227.75,-32 95.5,-32 95.5,0 227.75,0 227.75,-32"/>
<text xml:space="preserve" text-anchor="start" x="103.5" y="-18.5" font-family="Helvetica,sans-Serif" font-size="10.00">app.resistance_simulation.</text>
<text xml:space="preserve" text-anchor="middle" x="161.62" y="-6.5" font-family="Helvetica,sans-Serif" font-size="10.00">ResistanceSimulationError</text>
</a>
</g>
</g>
<!-- Node0&#45;&gt;Node2 -->
<g id="edge2_Node000000_Node000002" class="edge">
<title>Node0&#45;&gt;Node2</title>
<g id="a_edge2_Node000000_Node000002"><a xlink:title=" ">
<path fill="none" stroke="#63b8ff" d="M71.08,-31.17C78.76,-29.87 86.98,-28.47 95.22,-27.08"/>
<polygon fill="#63b8ff" stroke="#63b8ff" points="70.66,-27.69 61.39,-32.81 71.83,-34.59 70.66,-27.69"/>
</a>
</g>
</g>
</g>
</svg>
