<?xml version="1.0" encoding="UTF-8" standalone="no"?>
<!DOCTYPE svg PUBLIC "-//W3C//DTD SVG 1.1//EN"
 "http://www.w3.org/Graphics/SVG/1.1/DTD/svg11.dtd">
<!-- Generated by graphviz version 13.1.2 (20250808.2320)
 -->
<!-- Title: app.main.reload_timing_config Pages: 1 -->
<svg width="240pt" height="52pt"
 viewBox="0.00 0.00 240.00 52.00" xmlns="http://www.w3.org/2000/svg" xmlns:xlink="http://www.w3.org/1999/xlink">
<g id="graph0" class="graph" transform="scale(1 1) rotate(0) translate(4 48)">
<title>app.main.reload_timing_config</title>
<!-- Node1 -->
<g id="Node000001" class="node">
<title>Node1</title>
<g id="a_Node000001"><a xlink:title="Recharge les paramètres de temporisation depuis le fichier de configuration.">
<polygon fill="#999999" stroke="#666666" points="232.25,-32 115.75,-32 115.75,0 232.25,0 232.25,-32"/>
<text xml:space="preserve" text-anchor="start" x="123.75" y="-18.5" font-family="Helvetica,sans-Serif" font-size="10.00">app.main.reload_timing</text>
<text xml:space="preserve" text-anchor="middle" x="174" y="-6.5" font-family="Helvetica,sans-Serif" font-size="10.00">_config</text>
</a>
</g>
</g>
<!-- Node2 -->
<g id="Node000002" class="node">
<title>Node2</title>
<g id="a_Node000002"><a xlink:href="namespaceapp_1_1main.html#a3e4dda2887e910e984519bea9a420dc2" target="_top" xlink:title="Point d&#39;entrée principal du programme.">
<polygon fill="white" stroke="#666666" points="79.75,-26 0,-26 0,-6 79.75,-6 79.75,-26"/>
<text xml:space="preserve" text-anchor="middle" x="39.88" y="-12.5" font-family="Helvetica,sans-Serif" font-size="10.00">app.main.main</text>
</a>
</g>
</g>
<!-- Node1&#45;&gt;Node2 -->
<g id="edge1_Node000001_Node000002" class="edge">
<title>Node1&#45;&gt;Node2</title>
<g id="a_edge1_Node000001_Node000002"><a xlink:title=" ">
<path fill="none" stroke="#63b8ff" d="M104.16,-16C95.88,-16 87.66,-16 80.02,-16"/>
<polygon fill="#63b8ff" stroke="#63b8ff" points="103.92,-19.5 113.92,-16 103.92,-12.5 103.92,-19.5"/>
</a>
</g>
</g>
<!-- Node2&#45;&gt;Node2 -->
<g id="edge2_Node000002_Node000002" class="edge">
<title>Node2&#45;&gt;Node2</title>
<g id="a_edge2_Node000002_Node000002"><a xlink:title=" ">
<path fill="none" stroke="#63b8ff" d="M63.58,-37.44C60.53,-41.3 52.63,-44 39.88,-44 16.56,-44 9.46,-34.98 18.56,-26.34"/>
<polygon fill="#63b8ff" stroke="#63b8ff" points="67.03,-36.86 61.51,-27.82 60.19,-38.33 67.03,-36.86"/>
</a>
</g>
</g>
</g>
</svg>
