<?xml version="1.0" encoding="UTF-8" standalone="no"?>
<!DOCTYPE svg PUBLIC "-//W3C//DTD SVG 1.1//EN"
 "http://www.w3.org/Graphics/SVG/1.1/DTD/svg11.dtd">
<!-- Generated by graphviz version 13.1.2 (20250808.2320)
 -->
<!-- Title: app.hw_mux_adg731.adg731_ctrl_byte Pages: 1 -->
<svg width="511pt" height="40pt"
 viewBox="0.00 0.00 511.00 40.00" xmlns="http://www.w3.org/2000/svg" xmlns:xlink="http://www.w3.org/1999/xlink">
<g id="graph0" class="graph" transform="scale(1 1) rotate(0) translate(4 36)">
<title>app.hw_mux_adg731.adg731_ctrl_byte</title>
<!-- Node1 -->
<g id="Node000001" class="node">
<title>Node1</title>
<g id="a_Node000001"><a xlink:title="Génère le byte de contrôle pour l&#39;ADG731.">
<polygon fill="#999999" stroke="#666666" points="503.25,-32 360.5,-32 360.5,0 503.25,0 503.25,-32"/>
<text xml:space="preserve" text-anchor="start" x="368.5" y="-18.5" font-family="Helvetica,sans-Serif" font-size="10.00">app.hw_mux_adg731.adg731</text>
<text xml:space="preserve" text-anchor="middle" x="431.88" y="-6.5" font-family="Helvetica,sans-Serif" font-size="10.00">_ctrl_byte</text>
</a>
</g>
</g>
<!-- Node2 -->
<g id="Node000002" class="node">
<title>Node2</title>
<g id="a_Node000002"><a xlink:href="classapp_1_1hw__mux__adg731_1_1_adg731_mux_spi.html#a1d21810662e9c89483f4a8d5430167cd" target="_top" xlink:title="Active un canal spécifique sur une carte donnée.">
<polygon fill="white" stroke="#666666" points="324.5,-32 180.25,-32 180.25,0 324.5,0 324.5,-32"/>
<text xml:space="preserve" text-anchor="start" x="188.25" y="-18.5" font-family="Helvetica,sans-Serif" font-size="10.00">app.hw_mux_adg731.Adg731</text>
<text xml:space="preserve" text-anchor="middle" x="252.38" y="-6.5" font-family="Helvetica,sans-Serif" font-size="10.00">MuxSpi.set_channel</text>
</a>
</g>
</g>
<!-- Node1&#45;&gt;Node2 -->
<g id="edge1_Node000001_Node000002" class="edge">
<title>Node1&#45;&gt;Node2</title>
<g id="a_edge1_Node000001_Node000002"><a xlink:title=" ">
<path fill="none" stroke="#63b8ff" d="M348.96,-16C340.94,-16 332.86,-16 324.96,-16"/>
<polygon fill="#63b8ff" stroke="#63b8ff" points="348.7,-19.5 358.7,-16 348.7,-12.5 348.7,-19.5"/>
</a>
</g>
</g>
<!-- Node3 -->
<g id="Node000003" class="node">
<title>Node3</title>
<g id="a_Node000003"><a xlink:href="classapp_1_1hw__mux__adg731_1_1_adg731_mux_spi.html#a847670de338ddbc0e2257f8d821cd82a" target="_top" xlink:title="Utilitaire simple pour sélectionner un canal de sortie.">
<polygon fill="white" stroke="#666666" points="144.25,-32 0,-32 0,0 144.25,0 144.25,-32"/>
<text xml:space="preserve" text-anchor="start" x="8" y="-18.5" font-family="Helvetica,sans-Serif" font-size="10.00">app.hw_mux_adg731.Adg731</text>
<text xml:space="preserve" text-anchor="middle" x="72.12" y="-6.5" font-family="Helvetica,sans-Serif" font-size="10.00">MuxSpi.set_output_channel</text>
</a>
</g>
</g>
<!-- Node2&#45;&gt;Node3 -->
<g id="edge2_Node000002_Node000003" class="edge">
<title>Node2&#45;&gt;Node3</title>
<g id="a_edge2_Node000002_Node000003"><a xlink:title=" ">
<path fill="none" stroke="#63b8ff" d="M168.63,-16C160.61,-16 152.52,-16 144.62,-16"/>
<polygon fill="#63b8ff" stroke="#63b8ff" points="168.39,-19.5 178.39,-16 168.39,-12.5 168.39,-19.5"/>
</a>
</g>
</g>
</g>
</svg>
