<?xml version="1.0" encoding="UTF-8" standalone="no"?>
<!DOCTYPE svg PUBLIC "-//W3C//DTD SVG 1.1//EN"
 "http://www.w3.org/Graphics/SVG/1.1/DTD/svg11.dtd">
<!-- Generated by graphviz version 13.1.2 (20250808.2320)
 -->
<!-- Title: app.main.run_measurement_sequence Pages: 1 -->
<svg width="261pt" height="52pt"
 viewBox="0.00 0.00 261.00 52.00" xmlns="http://www.w3.org/2000/svg" xmlns:xlink="http://www.w3.org/1999/xlink">
<g id="graph0" class="graph" transform="scale(1 1) rotate(0) translate(4 48)">
<title>app.main.run_measurement_sequence</title>
<!-- Node1 -->
<g id="Node000001" class="node">
<title>Node1</title>
<g id="a_Node000001"><a xlink:title="Exécute une séquence complète de mesures pour tous les canaux activés selon la configuration fournie.">
<polygon fill="#999999" stroke="#666666" points="252.5,-32 115.75,-32 115.75,0 252.5,0 252.5,-32"/>
<text xml:space="preserve" text-anchor="start" x="123.75" y="-18.5" font-family="Helvetica,sans-Serif" font-size="10.00">app.main.run_measurement</text>
<text xml:space="preserve" text-anchor="middle" x="184.12" y="-6.5" font-family="Helvetica,sans-Serif" font-size="10.00">_sequence</text>
</a>
</g>
</g>
<!-- Node2 -->
<g id="Node000002" class="node">
<title>Node2</title>
<g id="a_Node000002"><a xlink:href="namespaceapp_1_1main.html#a3e4dda2887e910e984519bea9a420dc2" target="_top" xlink:title="Point d&#39;entrée principal du programme.">
<polygon fill="white" stroke="#666666" points="79.75,-26 0,-26 0,-6 79.75,-6 79.75,-26"/>
<text xml:space="preserve" text-anchor="middle" x="39.88" y="-12.5" font-family="Helvetica,sans-Serif" font-size="10.00">app.main.main</text>
</a>
</g>
</g>
<!-- Node1&#45;&gt;Node2 -->
<g id="edge1_Node000001_Node000002" class="edge">
<title>Node1&#45;&gt;Node2</title>
<g id="a_edge1_Node000001_Node000002"><a xlink:title=" ">
<path fill="none" stroke="#63b8ff" d="M103.93,-16C95.61,-16 87.44,-16 79.87,-16"/>
<polygon fill="#63b8ff" stroke="#63b8ff" points="103.82,-19.5 113.82,-16 103.82,-12.5 103.82,-19.5"/>
</a>
</g>
</g>
<!-- Node2&#45;&gt;Node2 -->
<g id="edge2_Node000002_Node000002" class="edge">
<title>Node2&#45;&gt;Node2</title>
<g id="a_edge2_Node000002_Node000002"><a xlink:title=" ">
<path fill="none" stroke="#63b8ff" d="M65.37,-37.44C62.09,-41.3 53.59,-44 39.88,-44 14.8,-44 7.16,-34.98 16.96,-26.34"/>
<polygon fill="#63b8ff" stroke="#63b8ff" points="68.81,-36.76 63.14,-27.81 61.99,-38.35 68.81,-36.76"/>
</a>
</g>
</g>
</g>
</svg>
