<?xml version="1.0" encoding="UTF-8" standalone="no"?>
<!DOCTYPE svg PUBLIC "-//W3C//DTD SVG 1.1//EN"
 "http://www.w3.org/Graphics/SVG/1.1/DTD/svg11.dtd">
<!-- Generated by graphviz version 13.1.2 (20250808.2320)
 -->
<!-- Title: app.adc_ads124s08.sign_extend_24 Pages: 1 -->
<svg width="576pt" height="58pt"
 viewBox="0.00 0.00 576.00 58.00" xmlns="http://www.w3.org/2000/svg" xmlns:xlink="http://www.w3.org/1999/xlink">
<g id="graph0" class="graph" transform="scale(1 1) rotate(0) translate(4 54)">
<title>app.adc_ads124s08.sign_extend_24</title>
<!-- Node1 -->
<g id="Node000001" class="node">
<title>Node1</title>
<g id="a_Node000001"><a xlink:title="Étend le signe d&#39;un code ADC 24 bits vers 32 bits.">
<polygon fill="#999999" stroke="#666666" points="567.75,-32 443.75,-32 443.75,0 567.75,0 567.75,-32"/>
<text xml:space="preserve" text-anchor="start" x="451.75" y="-18.5" font-family="Helvetica,sans-Serif" font-size="10.00">app.adc_ads124s08.sign</text>
<text xml:space="preserve" text-anchor="middle" x="505.75" y="-6.5" font-family="Helvetica,sans-Serif" font-size="10.00">_extend_24</text>
</a>
</g>
</g>
<!-- Node2 -->
<g id="Node000002" class="node">
<title>Node2</title>
<g id="a_Node000002"><a xlink:href="classapp_1_1adc__ads124s08_1_1_ads124s08.html#ac53728ccbaada975b3204c4e3a4364aa" target="_top" xlink:title="Lit un code de données 24 bits depuis l&#39;ADC.">
<polygon fill="white" stroke="#666666" points="407.75,-32 231.25,-32 231.25,0 407.75,0 407.75,-32"/>
<text xml:space="preserve" text-anchor="start" x="239.25" y="-18.5" font-family="Helvetica,sans-Serif" font-size="10.00">app.adc_ads124s08.Ads124s08.read</text>
<text xml:space="preserve" text-anchor="middle" x="319.5" y="-6.5" font-family="Helvetica,sans-Serif" font-size="10.00">_code24</text>
</a>
</g>
</g>
<!-- Node1&#45;&gt;Node2 -->
<g id="edge1_Node000001_Node000002" class="edge">
<title>Node1&#45;&gt;Node2</title>
<g id="a_edge1_Node000001_Node000002"><a xlink:title=" ">
<path fill="none" stroke="#63b8ff" d="M432.07,-16C424.22,-16 416.18,-16 408.18,-16"/>
<polygon fill="#63b8ff" stroke="#63b8ff" points="431.88,-19.5 441.88,-16 431.88,-12.5 431.88,-19.5"/>
</a>
</g>
</g>
<!-- Node3 -->
<g id="Node000003" class="node">
<title>Node3</title>
<g id="a_Node000003"><a xlink:href="classapp_1_1adc__ads124s08_1_1_ads124s08.html#a6c3422094f1375f8e91bff96eb299f69" target="_top" xlink:title="Mesure la résistance d&#39;une sonde via l&#39;ADC.">
<polygon fill="white" stroke="#666666" points="195.25,-32 0,-32 0,0 195.25,0 195.25,-32"/>
<text xml:space="preserve" text-anchor="start" x="8" y="-18.5" font-family="Helvetica,sans-Serif" font-size="10.00">app.adc_ads124s08.Ads124s08.measure</text>
<text xml:space="preserve" text-anchor="middle" x="97.62" y="-6.5" font-family="Helvetica,sans-Serif" font-size="10.00">_resistance</text>
</a>
</g>
</g>
<!-- Node2&#45;&gt;Node3 -->
<g id="edge2_Node000002_Node000003" class="edge">
<title>Node2&#45;&gt;Node3</title>
<g id="a_edge2_Node000002_Node000003"><a xlink:title=" ">
<path fill="none" stroke="#63b8ff" d="M219.72,-16C211.71,-16 203.62,-16 195.62,-16"/>
<polygon fill="#63b8ff" stroke="#63b8ff" points="219.45,-19.5 229.45,-16 219.45,-12.5 219.45,-19.5"/>
</a>
</g>
</g>
<!-- Node3&#45;&gt;Node3 -->
<g id="edge3_Node000003_Node000003" class="edge">
<title>Node3&#45;&gt;Node3</title>
<g id="a_edge3_Node000003_Node000003"><a xlink:title=" ">
<path fill="none" stroke="#63b8ff" d="M134.86,-43.54C128.79,-47.41 116.37,-50 97.62,-50 63.82,-50 50.62,-41.58 58.01,-32.44"/>
<polygon fill="#63b8ff" stroke="#63b8ff" points="138.25,-44.43 136.92,-33.92 131.4,-42.97 138.25,-44.43"/>
</a>
</g>
</g>
</g>
</svg>
