<?xml version="1.0" encoding="UTF-8" standalone="no"?>
<!DOCTYPE svg PUBLIC "-//W3C//DTD SVG 1.1//EN"
 "http://www.w3.org/Graphics/SVG/1.1/DTD/svg11.dtd">
<!-- Generated by graphviz version 13.1.2 (20250808.2320)
 -->
<!-- Title: app.main.main Pages: 1 -->
<svg width="403pt" height="115pt"
 viewBox="0.00 0.00 403.00 115.00" xmlns="http://www.w3.org/2000/svg" xmlns:xlink="http://www.w3.org/1999/xlink">
<g id="graph0" class="graph" transform="scale(1 1) rotate(0) translate(4 111)">
<title>app.main.main</title>
<!-- Node1 -->
<g id="Node000001" class="node">
<title>Node1</title>
<g id="a_Node000001"><a xlink:title="Point d&#39;entrée principal du programme.">
<polygon fill="#999999" stroke="#666666" points="79.75,-76 0,-76 0,-56 79.75,-56 79.75,-76"/>
<text xml:space="preserve" text-anchor="middle" x="39.88" y="-62.5" font-family="Helvetica,sans-Serif" font-size="10.00">app.main.main</text>
</a>
</g>
</g>
<!-- Node1&#45;&gt;Node1 -->
<g id="edge1_Node000001_Node000001" class="edge">
<title>Node1&#45;&gt;Node1</title>
<g id="a_edge1_Node000001_Node000001"><a xlink:title=" ">
<path fill="none" stroke="#63b8ff" d="M16.96,-76.34C7.16,-84.98 14.8,-94 39.88,-94 53.59,-94 62.09,-91.3 65.37,-87.44"/>
<polygon fill="#63b8ff" stroke="#63b8ff" points="68.81,-86.76 63.14,-77.81 61.99,-88.35 68.81,-86.76"/>
</a>
</g>
</g>
<!-- Node2 -->
<g id="Node000002" class="node">
<title>Node2</title>
<g id="a_Node000002"><a xlink:href="namespaceapp_1_1main.html#a2d15309f12a3472b94e8cace0ace5a6b" target="_top" xlink:title="Recharge les paramètres de temporisation depuis le fichier de configuration.">
<polygon fill="white" stroke="#666666" points="242.38,-107 125.88,-107 125.88,-75 242.38,-75 242.38,-107"/>
<text xml:space="preserve" text-anchor="start" x="133.88" y="-93.5" font-family="Helvetica,sans-Serif" font-size="10.00">app.main.reload_timing</text>
<text xml:space="preserve" text-anchor="middle" x="184.12" y="-81.5" font-family="Helvetica,sans-Serif" font-size="10.00">_config</text>
</a>
</g>
</g>
<!-- Node1&#45;&gt;Node2 -->
<g id="edge2_Node000001_Node000002" class="edge">
<title>Node1&#45;&gt;Node2</title>
<g id="a_edge2_Node000001_Node000002"><a xlink:title=" ">
<path fill="none" stroke="#63b8ff" d="M80.12,-72.9C90.78,-74.77 102.64,-76.85 114.41,-78.92"/>
<polygon fill="#63b8ff" stroke="#63b8ff" points="113.68,-82.35 124.14,-80.63 114.9,-75.46 113.68,-82.35"/>
</a>
</g>
</g>
<!-- Node3 -->
<g id="Node000003" class="node">
<title>Node3</title>
<g id="a_Node000003"><a xlink:href="namespaceapp_1_1main.html#abde8d10de044e070eb5eab1e448cd558" target="_top" xlink:title="Exécute une séquence complète de mesures pour tous les canaux activés selon la configuration fournie.">
<polygon fill="white" stroke="#666666" points="252.5,-57 115.75,-57 115.75,-25 252.5,-25 252.5,-57"/>
<text xml:space="preserve" text-anchor="start" x="123.75" y="-43.5" font-family="Helvetica,sans-Serif" font-size="10.00">app.main.run_measurement</text>
<text xml:space="preserve" text-anchor="middle" x="184.12" y="-31.5" font-family="Helvetica,sans-Serif" font-size="10.00">_sequence</text>
</a>
</g>
</g>
<!-- Node1&#45;&gt;Node3 -->
<g id="edge3_Node000001_Node000003" class="edge">
<title>Node1&#45;&gt;Node3</title>
<g id="a_edge3_Node000001_Node000003"><a xlink:title=" ">
<path fill="none" stroke="#63b8ff" d="M80.12,-59.1C87.64,-57.78 95.76,-56.35 104.02,-54.9"/>
<polygon fill="#63b8ff" stroke="#63b8ff" points="104.61,-58.35 113.85,-53.17 103.4,-51.46 104.61,-58.35"/>
</a>
</g>
</g>
<!-- Node4 -->
<g id="Node000004" class="node">
<title>Node4</title>
<g id="a_Node000004"><a xlink:href="namespaceapp_1_1main.html#a7e7d269529399106243cc74fc3c73b6a" target="_top" xlink:title="Sauvegarde l&#39;état courant et historique par canal dans un fichier JSON.">
<polygon fill="white" stroke="#666666" points="392.25,-82 291.5,-82 291.5,-50 392.25,-50 392.25,-82"/>
<text xml:space="preserve" text-anchor="start" x="299.5" y="-68.5" font-family="Helvetica,sans-Serif" font-size="10.00">app.main.save_last</text>
<text xml:space="preserve" text-anchor="middle" x="341.88" y="-56.5" font-family="Helvetica,sans-Serif" font-size="10.00">_state</text>
</a>
</g>
</g>
<!-- Node3&#45;&gt;Node4 -->
<g id="edge4_Node000003_Node000004" class="edge">
<title>Node3&#45;&gt;Node4</title>
<g id="a_edge4_Node000003_Node000004"><a xlink:title=" ">
<path fill="none" stroke="#63b8ff" d="M252.99,-51.89C261.88,-53.32 270.95,-54.78 279.72,-56.18"/>
<polygon fill="#63b8ff" stroke="#63b8ff" points="279.12,-59.63 289.54,-57.76 280.23,-52.72 279.12,-59.63"/>
</a>
</g>
</g>
<!-- Node5 -->
<g id="Node000005" class="node">
<title>Node5</title>
<g id="a_Node000005"><a xlink:href="namespaceapp_1_1main.html#a1b3211e7ab2da62ed461ce881f0ce556" target="_top" xlink:title="Affiche un motif LED d&#39;erreur pendant un temps donné puis remet l&#39;indicateur en mode &#39;sequence_runnin...">
<polygon fill="white" stroke="#666666" points="395.25,-32 288.5,-32 288.5,0 395.25,0 395.25,-32"/>
<text xml:space="preserve" text-anchor="start" x="296.5" y="-18.5" font-family="Helvetica,sans-Serif" font-size="10.00">app.main.show_error</text>
<text xml:space="preserve" text-anchor="middle" x="341.88" y="-6.5" font-family="Helvetica,sans-Serif" font-size="10.00">_and_continue</text>
</a>
</g>
</g>
<!-- Node3&#45;&gt;Node5 -->
<g id="edge5_Node000003_Node000005" class="edge">
<title>Node3&#45;&gt;Node5</title>
<g id="a_edge5_Node000003_Node000005"><a xlink:title=" ">
<path fill="none" stroke="#63b8ff" d="M252.99,-30.11C260.92,-28.83 268.99,-27.54 276.87,-26.27"/>
<polygon fill="#63b8ff" stroke="#63b8ff" points="277.41,-29.73 286.73,-24.69 276.3,-22.82 277.41,-29.73"/>
</a>
</g>
</g>
</g>
</svg>
